# xmcd
#
# Track frame offsets: 
#        150
#        16809
#        28599
#        40403
#        54882
#        67055
#        78762
#        92452
#        104239
#        118424
#        129639
#        144147
#        163650
#        177675
#        194259
#        206952
#        219938
#        235266
#
# Disc length: 3286 seconds
#
# Revision: 0
# Processed by: cddbd v1.5.2PL0 Copyright (c) Steve Scherf et al.
# Submitted via: ExactAudioCopy v0.95b4
#
DISCID=030cd412
DTITLE=David Peterson - David Peterson Comin' on Strong
DYEAR=2009
DGENRE=Bluegrass
TTITLE0=01 Comin' on Strong
TTITLE1=02 Blue Memories
TTITLE2=03 Rainbow in the Valley
TTITLE3=04 Your Too Easy to Remember
TTITLE4=05 Rattlesnakin' Daddy
TTITLE5=06 The Crazy Blues
TTITLE6=07 Come Walk With Me
TTITLE7=08 Remembering
TTITLE8=09 Come Back to Me
TTITLE9=10 You're the Only One For Me
TTITLE10=11 Thirteen Nights
TTITLE11=12 Family Bible
TTITLE12=13 You Can't Judge a Book By Its Cover
TTITLE13=14 The Waltz You Saved For Me
TTITLE14=15 Lovin' Lies
TTITLE15=16 My Tears Will Pour Just Like Rain
TTITLE16=17 Wild Party Nights
TTITLE17=18 Neckties
EXTD=
EXTT0=
EXTT1=
EXTT2=
EXTT3=
EXTT4=
EXTT5=
EXTT6=
EXTT7=
EXTT8=
EXTT9=
EXTT10=
EXTT11=
EXTT12=
EXTT13=
EXTT14=
EXTT15=
EXTT16=
EXTT17=
PLAYORDER=
